<svg width="4068" height="594" xmlns="http://www.w3.org/2000/svg" xmlns:xlink="http://www.w3.org/1999/xlink" xml:space="preserve" overflow="hidden"><defs><clipPath id="clip0"><rect x="170" y="86" width="4068" height="594"/></clipPath><linearGradient x1="2165.81" y1="34.7727" x2="2567.34" y2="730.237" gradientUnits="userSpaceOnUse" spreadMethod="reflect" id="fill1"><stop offset="0" stop-color="#672C93"/><stop offset="0.33" stop-color="#672C93"/><stop offset="0.56" stop-color="#A41EF6" stop-opacity="0.580392"/><stop offset="0.81" stop-color="#B5D2EC"/><stop offset="1" stop-color="#B5D2EC"/></linearGradient></defs><g clip-path="url(#clip0)" transform="translate(-170 -86)"><path d="M283.652 513.575C286.96 513.988 284.479 526.394 281.171 526.394L174.064 526.394C170.756 526.394 168.274 513.988 171.583 513.575 191.846 510.68 206.32 503.237 206.32 476.359L206.32 286.97C206.32 260.091 191.846 252.648 171.583 249.753 168.274 249.34 170.756 236.934 174.064 236.934L281.171 236.934C284.479 236.934 286.96 249.34 283.652 249.753 265.87 252.234 249.328 258.024 249.328 286.97L249.328 476.359C249.328 505.305 265.87 511.094 283.652 513.575M455.271 516.883C458.579 516.883 457.752 527.221 455.271 528.461 431.699 537.145 396.962 532.183 372.977 506.545L254.291 379.596 348.578 284.075C370.082 262.572 368.841 253.061 346.924 249.753 341.547 248.926 344.029 236.934 347.337 236.934L438.316 236.934C441.624 236.934 444.105 249.34 439.97 249.753 421.361 251.821 401.511 260.918 374.217 288.624L297.712 366.364 405.646 480.494C431.699 507.372 446.173 516.883 455.271 516.883M486.659 526.394C483.35 526.394 480.869 513.988 484.178 513.575 504.441 510.68 518.915 503.237 518.915 476.359L518.915 286.97C518.915 260.091 504.441 252.648 484.178 249.753 480.869 249.34 483.35 236.934 486.659 236.934L593.765 236.934C597.074 236.934 599.555 249.34 596.247 249.753 578.464 252.234 561.923 258.024 561.923 286.97L561.923 476.359C561.923 505.305 578.464 511.094 596.247 513.575 599.555 513.988 597.074 526.394 593.765 526.394L486.659 526.394M893.54 530.529C886.924 530.529 883.616 527.221 879.067 522.672L680.567 308.472 680.567 475.532C680.567 503.237 696.695 508.199 718.2 513.575 721.508 514.402 719.854 526.394 715.718 526.394L623.086 526.394C619.364 526.394 617.296 514.815 620.604 513.575 640.04 508.199 654.928 503.237 654.928 475.532L654.928 311.78C654.928 285.315 652.033 267.948 638.387 252.648 635.905 249.34 632.183 246.859 632.183 245.204 632.183 241.897 635.078 236.934 639.627 236.934L668.575 236.934C673.124 236.934 676.018 237.348 678.913 240.656L873.69 453.202 873.69 287.383C873.69 258.437 855.495 254.716 836.059 249.753 832.75 248.926 834.404 236.934 838.54 236.934L931.172 236.934C934.894 236.934 936.962 248.926 933.654 249.753 915.044 254.716 898.917 258.437 898.917 287.383L898.917 451.548C898.917 477.599 899.744 507.372 903.879 522.259 905.947 528.875 898.503 530.529 893.54 530.529M1021.28 526.394C1017.56 526.394 1015.08 514.402 1018.39 513.988 1046.51 510.68 1065.53 504.478 1065.53 482.148L1065.53 274.978C1065.53 265.053 1062.22 261.745 1052.3 261.745L1039.07 261.745C997.298 261.745 978.688 268.775 969.177 288.624 965.455 296.067 953.049 294.826 954.289 288.624 957.598 272.497 960.906 261.332 963.387 240.243 964.215 233.213 969.177 233.626 976.207 234.453 991.922 236.107 1012.6 236.934 1089.1 236.934 1165.61 236.934 1196.21 236.107 1211.92 234.453 1219.37 233.626 1226.4 233.213 1223.92 240.243 1218.13 259.264 1213.99 272.91 1211.51 288.624 1210.27 295.653 1199.93 295.24 1198.69 288.624 1194.56 269.188 1177.6 261.745 1140.8 261.745L1125.91 261.745C1115.98 261.745 1110.19 265.053 1110.19 274.978L1110.19 482.148C1110.19 504.478 1129.63 510.68 1157.34 513.988 1160.65 514.402 1158.16 526.394 1154.44 526.394L1021.28 526.394M1398.39 533.01C1341.32 533.01 1276.81 502.41 1276.81 418.467L1276.81 286.97C1276.81 260.091 1262.34 252.234 1242.9 249.753 1239.59 249.34 1242.07 236.934 1245.38 236.934L1352.07 236.934C1355.38 236.934 1357.86 249.34 1354.55 249.753 1338.01 251.821 1321.47 258.024 1321.47 286.97L1321.47 420.534C1321.47 479.253 1355.8 507.786 1402.11 507.786 1449.67 507.786 1486.47 479.253 1486.47 420.534L1486.47 286.97C1486.47 259.678 1471.17 252.648 1450.91 249.753 1448.01 249.34 1450.08 236.934 1453.39 236.934L1543.54 236.934C1546.85 236.934 1549.33 249.34 1546.02 249.753 1528.65 251.821 1512.11 258.024 1512.11 286.97L1512.11 418.467C1512.11 494.14 1463.32 533.01 1398.39 533.01M1841.25 530.529C1834.63 530.529 1831.32 527.221 1826.78 522.672L1628.28 308.472 1628.28 475.532C1628.28 503.237 1644.4 508.199 1665.91 513.575 1669.22 514.402 1667.56 526.394 1663.43 526.394L1570.79 526.394C1567.07 526.394 1565 514.815 1568.31 513.575 1587.75 508.199 1602.64 503.237 1602.64 475.532L1602.64 311.78C1602.64 285.315 1599.74 267.948 1586.1 252.648 1583.61 249.34 1579.89 246.859 1579.89 245.204 1579.89 241.897 1582.79 236.934 1587.34 236.934L1616.28 236.934C1620.83 236.934 1623.73 237.348 1626.62 240.656L1821.4 453.202 1821.4 287.383C1821.4 258.437 1803.2 254.716 1783.77 249.753 1780.46 248.926 1782.11 236.934 1786.25 236.934L1878.88 236.934C1882.6 236.934 1884.67 248.926 1881.36 249.753 1862.75 254.716 1846.63 258.437 1846.63 287.383L1846.63 451.548C1846.63 477.599 1847.45 507.372 1851.59 522.259 1853.66 528.875 1846.21 530.529 1841.25 530.529" fill="#48466D" fill-rule="evenodd"/><path d="M2249.74 388.016C2252.68 392.69 2251.68 398.731 2247.61 402.225L2246.3 403.192 2108.52 490.093 2364.19 654.941 2624.36 490.093 2497.73 411.595C2493.04 408.685 2491.29 402.816 2493.42 397.89L2494.17 396.445C2497.08 391.747 2502.94 390.002 2507.86 392.127L2509.3 392.883 2650.87 480.63C2657.31 484.623 2657.79 493.627 2652.24 498.343L2650.96 499.285 2370.03 677.298C2366.86 679.304 2362.93 679.54 2359.59 678.014L2358.2 677.251 2082.12 499.238C2075.81 495.169 2075.43 486.265 2080.94 481.606L2082.21 480.676 2234.58 384.572C2239.72 381.331 2246.5 382.877 2249.74 388.016M2466.78 321.099C2472.74 322.258 2476.63 328.035 2475.47 334.001 2458.18 423.079 2372.01 481.255 2283.02 463.94 2277.06 462.779 2273.17 457.004 2274.33 451.038 2275.49 445.072 2281.26 441.175 2287.22 442.334 2364.29 457.331 2438.91 406.948 2453.89 329.801 2455.05 323.835 2460.82 319.938 2466.78 321.099M2414.74 310.973C2420.7 312.133 2424.59 317.909 2423.43 323.875 2411.72 384.183 2353.39 423.571 2293.14 411.847 2287.18 410.688 2283.28 404.911 2284.44 398.945 2285.6 392.98 2291.37 389.082 2297.33 390.243 2345.66 399.647 2392.46 368.052 2401.85 319.676 2403.01 313.71 2408.78 309.813 2414.74 310.973M2368.48 301.971C2374.44 303.132 2378.33 308.909 2377.17 314.875 2370.43 349.609 2336.83 372.295 2302.13 365.543 2296.17 364.384 2292.28 358.607 2293.43 352.641 2294.59 346.675 2300.36 342.78 2306.32 343.939 2329.1 348.371 2351.16 333.478 2355.59 310.674 2356.75 304.708 2362.52 300.812 2368.48 301.971M2381.9 87.8872C2386.48 84.7979 2392.54 85.6158 2396.16 89.5754L2397.16 90.8569 2431.58 141.938C2434.67 146.519 2433.85 152.588 2429.9 156.206L2428.62 157.216 2323.15 228.404 2339.39 252.517C2346.87 263.62 2344.52 278.473 2334.34 286.769L2332.47 288.163 2296.01 312.778C2284.92 320.267 2270.08 317.917 2261.79 307.728L2260.4 305.849 2243.86 281.314 2139.72 352.428C2135.14 355.552 2129.05 354.748 2125.42 350.776L2124.41 349.491 2089.99 298.409C2086.92 293.844 2087.72 287.799 2091.64 284.175L2092.91 283.164 2197.14 211.985 2186.63 196.37C2179.15 185.267 2181.49 170.414 2191.67 162.118L2193.55 160.724 2230.01 136.109C2241.1 128.62 2255.94 130.971 2264.22 141.159L2265.62 143.038 2276.43 159.089 2381.9 87.8872M2208.91 230.605 2114.33 295.172 2136.45 328.003 2231.04 263.448 2208.91 230.605M2247.39 155.345C2246.45 153.946 2244.71 153.405 2243.18 153.919L2242.3 154.356 2205.85 178.971C2204.45 179.915 2203.91 181.655 2204.42 183.181L2204.86 184.062 2278.63 293.542C2279.57 294.942 2281.31 295.482 2282.83 294.968L2283.71 294.531 2320.17 269.916C2321.57 268.972 2322.11 267.232 2321.6 265.706L2321.16 264.825 2247.39 155.345M2385.08 112.29 2290.18 176.362 2312.3 209.194 2407.2 145.122 2385.08 112.29" fill="url(#fill1)" fill-rule="evenodd"/><path d="M3302.84 234.852C3308.25 234.852 3309.5 246.915 3304.08 247.748 3287.02 250.243 3274.53 256.483 3259.96 293.091L3197.11 454.912C3184.2 487.775 3177.12 509.407 3177.12 526.047 3177.12 528.543 3147.99 535.198 3146.74 532.286L3081.39 364.226 3043.92 454.912C3030.6 487.775 3024.36 510.239 3024.36 526.047 3024.36 528.543 2994.8 535.198 2993.56 532.286L2899.9 293.506C2885.74 256.483 2872.84 250.659 2856.61 248.164 2851.19 247.331 2852.44 234.852 2857.85 234.852L2959.42 234.852C2964.83 234.852 2966.08 247.331 2960.67 248.164 2943.6 251.907 2931.12 258.147 2944.44 293.091L3013.12 471.968 3057.24 365.473C3066.4 343.426 3067.65 329.698 3055.58 298.499 3041.01 260.643 3030.19 250.659 3019.36 248.164 3014.37 246.915 3015.2 234.852 3020.61 234.852L3094.71 234.852C3098.87 234.852 3099.7 236.1 3099.7 237.764 3099.7 242.756 3083.05 254.819 3098.04 293.091L3165.89 470.303 3234.57 293.091C3248.31 257.315 3235.4 251.907 3213.76 248.164 3209.18 247.331 3210.43 234.852 3215 234.852L3302.84 234.852M3324.44 526.879C3320.28 527.295 3318.61 514.399 3321.94 513.567 3346.5 507.327 3365.23 503.583 3365.23 472.8L3365.23 286.435C3365.23 258.563 3348.17 251.491 3329.85 246.915 3326.52 246.083 3328.19 233.604 3332.35 234.02 3362.73 236.516 3407.27 236.516 3438.08 236.516 3475.96 236.516 3504.26 234.852 3537.15 234.02 3546.72 234.02 3546.72 240.676 3544.64 249.827L3534.23 289.347C3532.98 294.755 3522.99 294.755 3521.33 289.347 3515.5 269.795 3502.18 256.067 3449.32 256.067 3418.1 256.067 3408.52 263.555 3408.52 286.435L3408.52 355.49C3408.52 366.305 3413.93 368.385 3422.26 368.385L3430.17 368.385C3467.22 368.385 3495.1 365.889 3513.42 348.418 3517.17 344.674 3525.91 345.506 3522.58 353.41L3498.02 405.825C3495.1 412.897 3489.28 412.065 3484.7 405.825 3474.71 392.929 3453.06 387.937 3426.84 387.937L3422.26 387.937C3413.93 387.937 3408.52 390.017 3408.52 400.833L3408.52 472.8C3408.52 496.927 3419.35 504.831 3455.14 504.831 3522.58 504.831 3544.22 477.791 3554.63 460.32 3557.96 454.912 3567.95 456.16 3567.95 464.064 3567.95 486.943 3550.47 526.463 3525.08 526.879 3505.1 525.63 3478.45 524.382 3442.66 524.382 3404.36 524.382 3362.73 523.135 3324.44 526.879M3865.53 530.206C3858.87 530.206 3855.54 526.879 3850.96 522.303L3651.16 306.818 3651.16 474.879C3651.16 502.751 3667.39 507.743 3689.04 513.151 3692.37 513.983 3690.7 526.047 3686.54 526.047L3593.3 526.047C3589.55 526.047 3587.47 514.399 3590.8 513.151 3610.37 507.743 3625.35 502.751 3625.35 474.879L3625.35 310.146C3625.35 283.523 3622.44 266.051 3608.7 250.659 3606.2 247.331 3602.46 244.835 3602.46 243.172 3602.46 239.843 3605.37 234.852 3609.95 234.852L3639.09 234.852C3643.67 234.852 3646.58 235.268 3649.5 238.596L3845.55 452.416 3845.55 285.603C3845.55 256.483 3827.24 252.739 3807.67 247.748 3804.34 246.915 3806.01 234.852 3810.17 234.852L3903.41 234.852C3907.16 234.852 3909.24 246.915 3905.91 247.748 3887.18 252.739 3870.95 256.483 3870.95 285.603L3870.95 450.752C3870.95 476.959 3871.78 506.911 3875.94 521.887 3878.02 528.543 3870.53 530.206 3865.53 530.206M4086.94 532.703C4029.5 532.703 3964.56 501.919 3964.56 417.473L3964.56 285.187C3964.56 258.147 3949.99 250.243 3930.43 247.748 3927.1 247.331 3929.6 234.852 3932.93 234.852L4040.32 234.852C4043.65 234.852 4046.15 247.331 4042.82 247.748 4026.17 249.827 4009.52 256.067 4009.52 285.187L4009.52 419.552C4009.52 478.623 4044.07 507.327 4090.69 507.327 4138.56 507.327 4175.6 478.623 4175.6 419.552L4175.6 285.187C4175.6 257.731 4160.2 250.659 4139.81 247.748 4136.89 247.331 4138.97 234.852 4142.3 234.852L4233.05 234.852C4236.38 234.852 4238.88 247.331 4235.55 247.748 4218.06 249.827 4201.41 256.067 4201.41 285.187L4201.41 417.473C4201.41 493.599 4152.29 532.703 4086.94 532.703" fill="#48466D" fill-rule="evenodd"/></g></svg>